# xmcd
#
# Track frame offsets:
#	150
#	11956
#	29738
#	52409
#	63433
#	81725
#	102985
#	112175
#	133140
#	153705
#	171558
#	183533
#	205041
#	227670
#	235788
#	257573
#
# Disc length: 3964 seconds
#
# Revision: 0
# Processed by: cddbd v1.5.1PL2 Copyright (c) Steve Scherf et al.
# Submitted via: dBpowerAMP V4.0
#
DISCID=f80f7a10
DTITLE=Butch Meier - Live at Bimbotown
DYEAR=2006
DGENRE=Country
TTITLE0=Fire Meier
TTITLE1=You can win
TTITLE2=Breaking law
TTITLE3=Stuntman
TTITLE4=Dancing
TTITLE5=Skymarshall
TTITLE6=Barjoke
TTITLE7=Rebel song
TTITLE8=Freedom
TTITLE9=Run to the hills
TTITLE10=Wasted
TTITLE11=Midnight lady
TTITLE12=All she wants
TTITLE13=Rostock was yesterday
TTITLE14=Ring of Meier
TTITLE15=Misunderstood/countryroad
EXTD=
EXTT0=
EXTT1=
EXTT2=
EXTT3=
EXTT4=
EXTT5=
EXTT6=
EXTT7=
EXTT8=
EXTT9=
EXTT10=
EXTT11=
EXTT12=
EXTT13=
EXTT14=
EXTT15=
PLAYORDER=
